<svg width="100" height="100" viewBox="0 0 100 100" fill="none" xmlns="http://www.w3.org/2000/svg">
<g filter="url(#filter0_f_45_118)">
<path d="M30.25 72.375L10.875 57.125L20.5 39.25L48.125 50L30.25 72.375Z" fill="url(#paint0_linear_45_118)"/>
<path d="M90 31.375L88.5 77.625L57.75 90L39.25 78L66.25 50L54.5 24L65.125 11.25L90 31.375Z" fill="url(#paint1_linear_45_118)"/>
<path d="M90 31.375L65.625 60.125L54.5 24L65.125 11.25L90 31.375Z" fill="url(#paint2_linear_45_118)"/>
<path d="M48.5 76.375L16.5 88L21.625 70L28.25 47.75L10 41.625L21.625 10L46.625 13L71.375 41.25L48.5 76.375Z" fill="url(#paint3_linear_45_118)"/>
<path d="M75 25H25V75H75V25Z" fill="black"/>
<path d="M29.75 65.625H48.5V68.75H29.75V65.625ZM43.125 35.25V31.5H32.875V35.25H35.75V48.375H32.875V52.25H43.125V48.375H40.25V35.25H43.125ZM53.125 52.5C51.6979 52.5644 50.2781 52.2632 49 51.625C47.9544 51.0481 47.0225 50.2857 46.25 49.375L49.125 46.125C49.6441 46.6954 50.232 47.1992 50.875 47.625C51.48 47.9797 52.1742 48.1533 52.875 48.125C53.6457 48.1839 54.3952 47.856 54.875 47.25C55.454 46.5044 55.7226 45.564 55.625 44.625V31.25H60.25V44.75C60.2974 45.8556 60.1276 46.9598 59.75 48C59.4202 49.0553 58.8163 50.0043 58 50.75C56.5834 51.8017 54.8871 52.4106 53.125 52.5Z" fill="white"/>
</g>
<defs>
<filter id="filter0_f_45_118" x="0" y="0" width="100" height="100" filterUnits="userSpaceOnUse" color-interpolation-filters="sRGB">
<feFlood flood-opacity="0" result="BackgroundImageFix"/>
<feBlend mode="normal" in="SourceGraphic" in2="BackgroundImageFix" result="shape"/>
<feGaussianBlur stdDeviation="5" result="effect1_foregroundBlur_45_118"/>
</filter>
<linearGradient id="paint0_linear_45_118" x1="10.875" y1="55.8125" x2="48.05" y2="55.8125" gradientUnits="userSpaceOnUse">
<stop offset="0.26" stop-color="#F97A12"/>
<stop offset="0.46" stop-color="#B07B58"/>
<stop offset="0.72" stop-color="#577BAE"/>
<stop offset="0.91" stop-color="#1E7CE5"/>
<stop offset="1" stop-color="#087CFA"/>
</linearGradient>
<linearGradient id="paint1_linear_45_118" x1="39.425" y1="38.45" x2="105.079" y2="53.5339" gradientUnits="userSpaceOnUse">
<stop stop-color="#F97A12"/>
<stop offset="0.07" stop-color="#CB7A3E"/>
<stop offset="0.15" stop-color="#9E7B6A"/>
<stop offset="0.24" stop-color="#757B91"/>
<stop offset="0.33" stop-color="#537BB1"/>
<stop offset="0.43" stop-color="#387CCC"/>
<stop offset="0.54" stop-color="#237CE0"/>
<stop offset="0.66" stop-color="#147CEF"/>
<stop offset="0.79" stop-color="#0B7CF7"/>
<stop offset="1" stop-color="#087CFA"/>
</linearGradient>
<linearGradient id="paint2_linear_45_118" x1="82.25" y1="59.025" x2="54.2891" y2="14.922" gradientUnits="userSpaceOnUse">
<stop stop-color="#FE315D"/>
<stop offset="0.08" stop-color="#CB417E"/>
<stop offset="0.16" stop-color="#9E4E9B"/>
<stop offset="0.25" stop-color="#755BB4"/>
<stop offset="0.34" stop-color="#5365CA"/>
<stop offset="0.44" stop-color="#386DDB"/>
<stop offset="0.54" stop-color="#2374E9"/>
<stop offset="0.66" stop-color="#1478F3"/>
<stop offset="0.79" stop-color="#0B7BF8"/>
<stop offset="1" stop-color="#087CFA"/>
</linearGradient>
<linearGradient id="paint3_linear_45_118" x1="22.275" y1="28.7875" x2="89.5995" y2="97.7448" gradientUnits="userSpaceOnUse">
<stop stop-color="#FE315D"/>
<stop offset="0.04" stop-color="#F63462"/>
<stop offset="0.1" stop-color="#DF3A71"/>
<stop offset="0.17" stop-color="#C24383"/>
<stop offset="0.29" stop-color="#AD4A91"/>
<stop offset="0.55" stop-color="#755BB4"/>
<stop offset="0.92" stop-color="#1D76ED"/>
<stop offset="1" stop-color="#087CFA"/>
</linearGradient>
</defs>
</svg>
