<svg id="js-logo" width="74" height="74" viewBox="0 0 74 74" fill="none" xmlns="http://www.w3.org/2000/svg">
<g filter="url(#filter0_f_45_125)">
<path d="M67 7H7V67H67V7Z" fill="#F1E06F"/>
<path fill-rule="evenodd" clip-rule="evenodd" d="M58.9749 40.7901C57.4747 38.2634 55.486 37 53.0088 37C49.1409 37 47 39.5 47 42C47 44.5 48.25 47 53.271 48.25C56.4662 49.0454 59.5 50.75 59.5 54.5C59.5 58.25 56.2113 59.5 53.25 59.5C49.4654 59.5 46.9654 57.8333 45.75 54.5" fill="#F1E06F"/>
<path d="M37 34.5C37 46.373 37 53.0397 37 54.5C37 56.6905 35.6928 59.5 32 59.5C26.0365 59.5 25.75 54.5 25.75 54.5M58.9749 40.7901C57.4747 38.2634 55.486 37 53.0088 37C49.1409 37 47 39.5 47 42C47 44.5 48.25 47 53.271 48.25C56.4662 49.0454 59.5 50.75 59.5 54.5C59.5 58.25 56.2113 59.5 53.25 59.5C49.4654 59.5 46.9654 57.8333 45.75 54.5" stroke="black" stroke-width="2"/>
</g>
<defs>
<filter id="filter0_f_45_125" x="0" y="0" width="74" height="74" filterUnits="userSpaceOnUse" color-interpolation-filters="sRGB">
<feFlood flood-opacity="0" result="BackgroundImageFix"/>
<feBlend mode="normal" in="SourceGraphic" in2="BackgroundImageFix" result="shape"/>
<feGaussianBlur stdDeviation="3.5" result="effect1_foregroundBlur_45_125"/>
</filter>
</defs>
</svg>
