<svg id="octopus-with-text" width="304" height="251" viewBox="0 0 304 251" fill="none"
        xmlns="http://www.w3.org/2000/svg">
        <g id="Group 8">
            <g id="svg-elem-13" filter="url(#filter0_d_62_2)">
                <path
                    d="M225.5 48C232.196 53.3333 242.811 72.4 230.011 106C214.011 148 217.511 159 232.011 164.5C243.611 168.9 217.511 165 217.011 153C216.011 148.333 215.911 132.1 223.511 104.5C231.111 76.9 223.333 61.9928 218 57.5C217.882 67.1388 216.756 91.9063 196.532 110.5C168.847 135.952 152.032 153 164.532 166.5C177.032 180 142.532 158.5 165.032 134.5C187.532 110.5 211 77 205.532 60.5C207.865 70.5 202.332 92.4 161.532 100C110.532 109.5 104.532 119 107.032 131C109.532 143 82.0316 107 161.532 94C182.732 90.4 193.532 68.5 193.532 58.5C193.365 65.5 187.131 79.6992 163.532 79.5C148.064 79.3694 110.532 65 110.532 65C101.698 61.8333 82.1315 59.2 74.5316 74C68.0316 92 67.5316 58.5 94.5316 59.5C121.532 60.5 121.032 69 153.532 69.5C174.332 69.1 184.198 59.3333 186.532 54.5C178.865 65.1667 154.832 75 120.032 29C109.698 16 86.2316 -6.2 75.0316 9C61.0316 28 69.5316 1 86.5316 1C100.132 1 122.532 22.6667 132.032 33.5C138.865 41.3333 158.1 55 180.5 47C171.5 32.5 183 9 203 9C223 9 234.5 33.5 225.5 48Z"
                    fill="#E4E4E4" class="svg-elem-1"></path>
                <path
                    d="M225.5 48C232.196 53.3333 242.811 72.4 230.011 106C214.011 148 217.511 159 232.011 164.5C243.611 168.9 217.511 165 217.011 153C216.011 148.333 215.911 132.1 223.511 104.5C231.111 76.9 223.333 61.9928 218 57.5C217.882 67.1388 216.756 91.9063 196.532 110.5C168.847 135.952 152.032 153 164.532 166.5C177.032 180 142.532 158.5 165.032 134.5C187.532 110.5 211 77 205.532 60.5C207.865 70.5 202.332 92.4 161.532 100C110.532 109.5 104.532 119 107.032 131C109.532 143 82.0316 107 161.532 94C182.732 90.4 193.532 68.5 193.532 58.5C193.365 65.5 187.131 79.6992 163.532 79.5C148.064 79.3694 110.532 65 110.532 65C101.698 61.8333 82.1315 59.2 74.5316 74C68.0316 92 67.5316 58.5 94.5316 59.5C121.532 60.5 121.032 69 153.532 69.5C174.332 69.1 184.198 59.3333 186.532 54.5C178.865 65.1667 154.832 75 120.032 29C109.698 16 86.2316 -6.2 75.0316 9C61.0316 28 69.5316 1 86.5316 1C100.132 1 122.532 22.6667 132.032 33.5C138.865 41.3333 158.1 55 180.5 47C171.5 32.5 183 9 203 9C223 9 234.5 33.5 225.5 48Z"
                    stroke="#777777" stroke-width="1.5" class="svg-elem-2"></path>
            </g>
            <g id="svg-elem-1">
                <mask id="path-2-inside-1_62_2" fill="white">
                    <path
                        d="M10.422 250.999C8.20807 251.024 6.36999 250.555 4.9078 249.592C3.4802 248.629 2.37749 247.267 1.59968 245.506C0.856454 243.745 0.386948 241.661 0.191157 239.253L2.62196 238.378C2.88302 240.371 3.26301 242.137 3.76194 243.675C4.29546 245.213 5.08522 246.409 6.13122 247.263C7.17687 248.08 8.61642 248.478 10.4499 248.457C12.5255 248.434 14.146 247.851 15.3115 246.708C16.5115 245.565 17.0991 243.676 17.0741 241.04C17.0552 239.045 16.554 237.262 15.5704 235.691C14.621 234.083 13.2728 232.366 11.5256 230.541L3.76729 222.325C2.47378 220.909 1.52621 219.488 0.924571 218.064C0.322932 216.64 0.0149801 215.175 0.000714753 213.669C-0.0278158 210.657 0.797788 208.332 2.47753 206.694C4.19186 205.056 6.41546 204.221 9.14834 204.191C10.5667 204.175 11.8486 204.367 12.9941 204.769C14.1392 205.132 15.1312 205.761 15.97 206.656C16.843 207.512 17.5287 208.672 18.0269 210.134C18.5251 211.597 18.8535 213.401 19.0123 215.546L16.6312 216.194C16.4725 214.049 16.1269 212.264 15.5945 210.84C15.062 209.415 14.291 208.369 13.2813 207.703C12.2714 206.998 10.9188 206.656 9.22376 206.675C7.32113 206.696 5.73483 207.241 4.46486 208.31C3.19489 209.378 2.57096 211.08 2.59308 213.414C2.60413 214.581 2.82239 215.708 3.24785 216.796C3.70791 217.882 4.53209 219.059 5.72038 220.326L13.3734 228.374C15.0855 230.162 16.5568 232.084 17.7872 234.142C19.0518 236.161 19.6957 238.394 19.7189 240.841C19.7407 243.138 19.3609 245.044 18.5795 246.559C17.7977 248.036 16.7011 249.14 15.2895 249.871C13.878 250.603 12.2555 250.979 10.422 250.999Z"
                        class="svg-elem-3"></path>
                </mask>
                <path
                    d="M10.422 250.999C8.20807 251.024 6.36999 250.555 4.9078 249.592C3.4802 248.629 2.37749 247.267 1.59968 245.506C0.856454 243.745 0.386948 241.661 0.191157 239.253L2.62196 238.378C2.88302 240.371 3.26301 242.137 3.76194 243.675C4.29546 245.213 5.08522 246.409 6.13122 247.263C7.17687 248.08 8.61642 248.478 10.4499 248.457C12.5255 248.434 14.146 247.851 15.3115 246.708C16.5115 245.565 17.0991 243.676 17.0741 241.04C17.0552 239.045 16.554 237.262 15.5704 235.691C14.621 234.083 13.2728 232.366 11.5256 230.541L3.76729 222.325C2.47378 220.909 1.52621 219.488 0.924571 218.064C0.322932 216.64 0.0149801 215.175 0.000714753 213.669C-0.0278158 210.657 0.797788 208.332 2.47753 206.694C4.19186 205.056 6.41546 204.221 9.14834 204.191C10.5667 204.175 11.8486 204.367 12.9941 204.769C14.1392 205.132 15.1312 205.761 15.97 206.656C16.843 207.512 17.5287 208.672 18.0269 210.134C18.5251 211.597 18.8535 213.401 19.0123 215.546L16.6312 216.194C16.4725 214.049 16.1269 212.264 15.5945 210.84C15.062 209.415 14.291 208.369 13.2813 207.703C12.2714 206.998 10.9188 206.656 9.22376 206.675C7.32113 206.696 5.73483 207.241 4.46486 208.31C3.19489 209.378 2.57096 211.08 2.59308 213.414C2.60413 214.581 2.82239 215.708 3.24785 216.796C3.70791 217.882 4.53209 219.059 5.72038 220.326L13.3734 228.374C15.0855 230.162 16.5568 232.084 17.7872 234.142C19.0518 236.161 19.6957 238.394 19.7189 240.841C19.7407 243.138 19.3609 245.044 18.5795 246.559C17.7977 248.036 16.7011 249.14 15.2895 249.871C13.878 250.603 12.2555 250.979 10.422 250.999Z"
                    fill="#E4E4E4" stroke="#777777" mask="url(#path-2-inside-1_62_2)" class="svg-elem-4"></path>
            </g>
            <g id="svg-elem-0">
                <mask id="path-3-inside-2_62_2" fill="white">
                    <path
                        d="M294.702 247.809C292.488 247.834 290.65 247.365 289.188 246.403C287.76 245.44 286.658 244.078 285.88 242.317C285.137 240.555 284.667 238.471 284.471 236.063L286.902 235.189C287.163 237.181 287.543 238.947 288.042 240.485C288.576 242.023 289.366 243.219 290.412 244.073C291.457 244.89 292.897 245.288 294.73 245.267C296.806 245.244 298.426 244.661 299.592 243.518C300.792 242.375 301.379 240.486 301.354 237.851C301.336 235.855 300.834 234.072 299.851 232.502C298.901 230.893 297.553 229.176 295.806 227.351L288.048 219.135C286.754 217.719 285.806 216.299 285.205 214.875C284.603 213.45 284.295 211.985 284.281 210.479C284.252 207.467 285.078 205.142 286.758 203.504C288.472 201.866 290.696 201.032 293.429 201.001C294.847 200.985 296.129 201.178 297.274 201.579C298.42 201.943 299.411 202.572 300.25 203.466C301.123 204.322 301.809 205.482 302.307 206.945C302.805 208.408 303.134 210.211 303.293 212.356L300.911 213.004C300.753 210.859 300.407 209.075 299.875 207.65C299.342 206.225 298.571 205.179 297.562 204.513C296.552 203.809 295.199 203.466 293.504 203.485C291.601 203.507 290.015 204.052 288.745 205.12C287.475 206.189 286.851 207.89 286.873 210.224C286.884 211.392 287.103 212.519 287.528 213.606C287.988 214.693 288.812 215.87 290.001 217.136L297.654 225.184C299.366 226.972 300.837 228.895 302.067 230.952C303.332 232.971 303.976 235.204 303.999 237.651C304.021 239.948 303.641 241.854 302.86 243.369C302.078 244.846 300.981 245.95 299.57 246.682C298.158 247.413 296.536 247.789 294.702 247.809Z"
                        class="svg-elem-5"></path>
                </mask>
                <path
                    d="M294.702 247.809C292.488 247.834 290.65 247.365 289.188 246.403C287.76 245.44 286.658 244.078 285.88 242.317C285.137 240.555 284.667 238.471 284.471 236.063L286.902 235.189C287.163 237.181 287.543 238.947 288.042 240.485C288.576 242.023 289.366 243.219 290.412 244.073C291.457 244.89 292.897 245.288 294.73 245.267C296.806 245.244 298.426 244.661 299.592 243.518C300.792 242.375 301.379 240.486 301.354 237.851C301.336 235.855 300.834 234.072 299.851 232.502C298.901 230.893 297.553 229.176 295.806 227.351L288.048 219.135C286.754 217.719 285.806 216.299 285.205 214.875C284.603 213.45 284.295 211.985 284.281 210.479C284.252 207.467 285.078 205.142 286.758 203.504C288.472 201.866 290.696 201.032 293.429 201.001C294.847 200.985 296.129 201.178 297.274 201.579C298.42 201.943 299.411 202.572 300.25 203.466C301.123 204.322 301.809 205.482 302.307 206.945C302.805 208.408 303.134 210.211 303.293 212.356L300.911 213.004C300.753 210.859 300.407 209.075 299.875 207.65C299.342 206.225 298.571 205.179 297.562 204.513C296.552 203.809 295.199 203.466 293.504 203.485C291.601 203.507 290.015 204.052 288.745 205.12C287.475 206.189 286.851 207.89 286.873 210.224C286.884 211.392 287.103 212.519 287.528 213.606C287.988 214.693 288.812 215.87 290.001 217.136L297.654 225.184C299.366 226.972 300.837 228.895 302.067 230.952C303.332 232.971 303.976 235.204 303.999 237.651C304.021 239.948 303.641 241.854 302.86 243.369C302.078 244.846 300.981 245.95 299.57 246.682C298.158 247.413 296.536 247.789 294.702 247.809Z"
                    fill="#E4E4E4" stroke="#777777" mask="url(#path-3-inside-2_62_2)" class="svg-elem-6"></path>
            </g>
            <g id="svg-elem-6">
                <mask id="path-4-inside-3_62_2" fill="white">
                    <path
                        d="M96.8719 249.464L96.4386 203.72L106.609 203.605C109.1 203.577 111.007 204.064 112.331 205.066C113.69 206.03 114.619 207.375 115.12 209.102C115.655 210.79 115.932 212.688 115.952 214.797C115.968 216.491 115.811 218.112 115.48 219.659C115.183 221.207 114.59 222.531 113.701 223.633C112.846 224.697 111.572 225.389 109.88 225.709L116.85 249.24L114.048 249.272L107.291 226.303L99.4557 226.391L99.674 249.433L96.8719 249.464ZM99.4332 224.019L106.698 223.938C108.497 223.917 109.86 223.544 110.787 222.819C111.714 222.055 112.344 220.994 112.677 219.634C113.045 218.275 113.22 216.672 113.202 214.828C113.175 211.929 112.704 209.731 111.791 208.235C110.911 206.739 109.14 206.006 106.476 206.036L99.2637 206.116L99.4332 224.019Z"
                        class="svg-elem-7"></path>
                </mask>
                <path
                    d="M96.8719 249.464L96.4386 203.72L106.609 203.605C109.1 203.577 111.007 204.064 112.331 205.066C113.69 206.03 114.619 207.375 115.12 209.102C115.655 210.79 115.932 212.688 115.952 214.797C115.968 216.491 115.811 218.112 115.48 219.659C115.183 221.207 114.59 222.531 113.701 223.633C112.846 224.697 111.572 225.389 109.88 225.709L116.85 249.24L114.048 249.272L107.291 226.303L99.4557 226.391L99.674 249.433L96.8719 249.464ZM99.4332 224.019L106.698 223.938C108.497 223.917 109.86 223.544 110.787 222.819C111.714 222.055 112.344 220.994 112.677 219.634C113.045 218.275 113.22 216.672 113.202 214.828C113.175 211.929 112.704 209.731 111.791 208.235C110.911 206.739 109.14 206.006 106.476 206.036L99.2637 206.116L99.4332 224.019Z"
                    fill="#E4E4E4" stroke="#777777" mask="url(#path-4-inside-3_62_2)" class="svg-elem-8"></path>
            </g>
            <g id="svg-elem-11">
                <mask id="path-5-inside-4_62_2" fill="white">
                    <path
                        d="M233.438 247.932L233.005 202.187L242.864 202.077C245.389 202.048 247.366 202.553 248.794 203.592C250.222 204.592 251.221 205.974 251.792 207.737C252.396 209.5 252.709 211.511 252.731 213.77C252.75 215.804 252.474 217.746 251.904 219.597C251.368 221.448 250.396 222.965 248.989 224.148C247.582 225.331 245.633 225.937 243.142 225.965L236.033 226.045L236.24 247.901L233.438 247.932ZM236.011 223.673L242.497 223.6C244.192 223.581 245.573 223.245 246.639 222.593C247.74 221.941 248.543 220.915 249.049 219.516C249.589 218.079 249.848 216.175 249.825 213.803C249.802 211.356 249.542 209.457 249.045 208.107C248.547 206.72 247.76 205.768 246.682 205.253C245.604 204.7 244.166 204.434 242.367 204.454L235.829 204.528L236.011 223.673Z"
                        class="svg-elem-9"></path>
                </mask>
                <path
                    d="M233.438 247.932L233.005 202.187L242.864 202.077C245.389 202.048 247.366 202.553 248.794 203.592C250.222 204.592 251.221 205.974 251.792 207.737C252.396 209.5 252.709 211.511 252.731 213.77C252.75 215.804 252.474 217.746 251.904 219.597C251.368 221.448 250.396 222.965 248.989 224.148C247.582 225.331 245.633 225.937 243.142 225.965L236.033 226.045L236.24 247.901L233.438 247.932ZM236.011 223.673L242.497 223.6C244.192 223.581 245.573 223.245 246.639 222.593C247.74 221.941 248.543 220.915 249.049 219.516C249.589 218.079 249.848 216.175 249.825 213.803C249.802 211.356 249.542 209.457 249.045 208.107C248.547 206.72 247.76 205.768 246.682 205.253C245.604 204.7 244.166 204.434 242.367 204.454L235.829 204.528L236.011 223.673Z"
                    fill="#E4E4E4" stroke="#777777" mask="url(#path-5-inside-4_62_2)" class="svg-elem-10"></path>
            </g>
            <g id="svg-elem-4">
                <mask id="path-6-inside-5_62_2" fill="white">
                    <path
                        d="M59.0936 249.888L48.4899 204.257L51.2919 204.226L60.3919 244.508L68.1562 204.037L70.9064 204.006L61.74 249.858L59.0936 249.888Z"
                        class="svg-elem-11"></path>
                </mask>
                <path
                    d="M59.0936 249.888L48.4899 204.257L51.2919 204.226L60.3919 244.508L68.1562 204.037L70.9064 204.006L61.74 249.858L59.0936 249.888Z"
                    fill="#E4E4E4" stroke="#777777" mask="url(#path-6-inside-5_62_2)" class="svg-elem-12"></path>
            </g>
            <g id="svg-elem-10">
                <mask id="path-7-inside-6_62_2" fill="white">
                    <path
                        d="M216.184 248.747C213.451 248.778 211.318 248.218 209.785 247.068C208.286 245.88 207.233 244.272 206.625 242.246C206.018 240.182 205.701 237.851 205.677 235.253L205.488 215.261C205.463 212.663 205.752 210.363 206.356 208.36C206.96 206.358 208 204.783 209.477 203.637C210.989 202.491 213.076 201.902 215.74 201.873C218.404 201.843 220.484 202.384 221.983 203.497C223.515 204.609 224.603 206.16 225.244 208.148C225.886 210.137 226.219 212.43 226.244 215.028L226.433 235.076C226.458 237.674 226.186 239.993 225.617 242.033C225.048 244.072 224.009 245.703 222.498 246.925C221.021 248.109 218.917 248.716 216.184 248.747ZM216.16 246.205C218.166 246.183 219.701 245.733 220.766 244.855C221.864 243.976 222.614 242.763 223.015 241.215C223.415 239.629 223.605 237.8 223.585 235.73L223.385 214.608C223.366 212.537 223.141 210.732 222.711 209.193C222.282 207.654 221.527 206.477 220.446 205.661C219.366 204.807 217.805 204.391 215.764 204.414C213.757 204.436 212.205 204.887 211.106 205.765C210.042 206.606 209.309 207.8 208.909 209.348C208.508 210.897 208.318 212.706 208.337 214.777L208.537 235.899C208.557 237.969 208.782 239.793 209.212 241.37C209.642 242.909 210.397 244.105 211.477 244.959C212.593 245.812 214.153 246.228 216.16 246.205Z"
                        class="svg-elem-13"></path>
                </mask>
                <path
                    d="M216.184 248.747C213.451 248.778 211.318 248.218 209.785 247.068C208.286 245.88 207.233 244.272 206.625 242.246C206.018 240.182 205.701 237.851 205.677 235.253L205.488 215.261C205.463 212.663 205.752 210.363 206.356 208.36C206.96 206.358 208 204.783 209.477 203.637C210.989 202.491 213.076 201.902 215.74 201.873C218.404 201.843 220.484 202.384 221.983 203.497C223.515 204.609 224.603 206.16 225.244 208.148C225.886 210.137 226.219 212.43 226.244 215.028L226.433 235.076C226.458 237.674 226.186 239.993 225.617 242.033C225.048 244.072 224.009 245.703 222.498 246.925C221.021 248.109 218.917 248.716 216.184 248.747ZM216.16 246.205C218.166 246.183 219.701 245.733 220.766 244.855C221.864 243.976 222.614 242.763 223.015 241.215C223.415 239.629 223.605 237.8 223.585 235.73L223.385 214.608C223.366 212.537 223.141 210.732 222.711 209.193C222.282 207.654 221.527 206.477 220.446 205.661C219.366 204.807 217.805 204.391 215.764 204.414C213.757 204.436 212.205 204.887 211.106 205.765C210.042 206.606 209.309 207.8 208.909 209.348C208.508 210.897 208.318 212.706 208.337 214.777L208.537 235.899C208.557 237.969 208.782 239.793 209.212 241.37C209.642 242.909 210.397 244.105 211.477 244.959C212.593 245.812 214.153 246.228 216.16 246.205Z"
                    fill="#E4E4E4" stroke="#777777" mask="url(#path-7-inside-6_62_2)" class="svg-elem-14"></path>
            </g>
            <g id="svg-elem-5">
                <mask id="path-8-inside-7_62_2" fill="white">
                    <path
                        d="M76.4491 249.693L76.0157 203.949L90.545 203.786L90.5685 206.271L78.8932 206.402L79.0671 224.756L88.6667 224.648L88.6892 227.02L79.0896 227.128L79.28 247.233L91.1109 247.1L91.1339 249.529L76.4491 249.693Z"
                        class="svg-elem-15"></path>
                </mask>
                <path
                    d="M76.4491 249.693L76.0157 203.949L90.545 203.786L90.5685 206.271L78.8932 206.402L79.0671 224.756L88.6667 224.648L88.6892 227.02L79.0896 227.128L79.28 247.233L91.1109 247.1L91.1339 249.529L76.4491 249.693Z"
                    fill="#E4E4E4" stroke="#777777" mask="url(#path-8-inside-7_62_2)" class="svg-elem-16"></path>
            </g>
            <g id="svg-elem-12">
                <mask id="path-9-inside-8_62_2" fill="white">
                    <path
                        d="M268.592 248.159C265.859 248.189 263.727 247.724 262.195 246.762C260.664 245.763 259.578 244.419 258.94 242.732C258.335 241.007 258.023 239.071 258.002 236.925L257.671 201.91L260.473 201.879L260.805 236.95C260.821 238.607 261.042 240.11 261.47 241.461C261.933 242.774 262.721 243.8 263.835 244.541C264.984 245.281 266.561 245.64 268.568 245.617C270.47 245.596 271.971 245.203 273.071 244.437C274.205 243.634 275.008 242.571 275.48 241.247C275.952 239.924 276.18 238.434 276.164 236.778L275.832 201.707L278.582 201.676L278.914 236.69C278.934 238.836 278.624 240.779 277.983 242.518C277.342 244.22 276.265 245.588 274.753 246.621C273.274 247.617 271.221 248.129 268.592 248.159Z"
                        class="svg-elem-17"></path>
                </mask>
                <path
                    d="M268.592 248.159C265.859 248.189 263.727 247.724 262.195 246.762C260.664 245.763 259.578 244.419 258.94 242.732C258.335 241.007 258.023 239.071 258.002 236.925L257.671 201.91L260.473 201.879L260.805 236.95C260.821 238.607 261.042 240.11 261.47 241.461C261.933 242.774 262.721 243.8 263.835 244.541C264.984 245.281 266.561 245.64 268.568 245.617C270.47 245.596 271.971 245.203 273.071 244.437C274.205 243.634 275.008 242.571 275.48 241.247C275.952 239.924 276.18 238.434 276.164 236.778L275.832 201.707L278.582 201.676L278.914 236.69C278.934 238.836 278.624 240.779 277.983 242.518C277.342 244.22 276.265 245.588 274.753 246.621C273.274 247.617 271.221 248.129 268.592 248.159Z"
                    fill="#E4E4E4" stroke="#777777" mask="url(#path-9-inside-8_62_2)" class="svg-elem-18"></path>
            </g>
            <g id="svg-elem-9">
                <mask id="path-10-inside-9_62_2" fill="white">
                    <path
                        d="M190.749 248.411L190.339 205.151L181.933 205.245L181.909 202.761L201.316 202.543L201.34 205.028L193.141 205.12L193.551 248.38L190.749 248.411Z"
                        class="svg-elem-19"></path>
                </mask>
                <path
                    d="M190.749 248.411L190.339 205.151L181.933 205.245L181.909 202.761L201.316 202.543L201.34 205.028L193.141 205.12L193.551 248.38L190.749 248.411Z"
                    fill="#E4E4E4" stroke="#777777" mask="url(#path-10-inside-9_62_2)" class="svg-elem-20"></path>
            </g>
            <g id="svg-elem-3">
                <mask id="path-11-inside-10_62_2" fill="white">
                    <path
                        d="M36.1646 250.145L35.7313 204.401L38.5334 204.369L38.9437 247.686L51.6567 247.543L51.6682 248.757L51.6797 249.971L36.1646 250.145Z"
                        class="svg-elem-21"></path>
                </mask>
                <path
                    d="M36.1646 250.145L35.7313 204.401L38.5334 204.369L38.9437 247.686L51.6567 247.543L51.6682 248.757L51.6797 249.971L36.1646 250.145Z"
                    fill="#E4E4E4" stroke="#777777" mask="url(#path-11-inside-10_62_2)" class="svg-elem-22"></path>
            </g>
            <g id="svg-elem-8">
                <mask id="path-12-inside-11_62_2" fill="white">
                    <path
                        d="M169.155 249.275C166.387 249.306 164.254 248.708 162.755 247.482C161.29 246.256 160.271 244.611 159.698 242.546C159.125 240.444 158.826 238.132 158.802 235.609L158.618 216.182C158.593 213.546 158.865 211.209 159.434 209.169C160.002 207.092 161.025 205.461 162.501 204.277C163.977 203.056 166.047 202.43 168.711 202.4C171.167 202.373 173.092 202.878 174.486 203.917C175.879 204.956 176.88 206.451 177.486 208.402C178.092 210.315 178.408 212.571 178.433 215.169L178.454 217.484L175.756 217.515L175.734 215.199C175.714 213.015 175.506 211.173 175.111 209.671C174.716 208.132 174.013 206.953 173.002 206.136C171.991 205.319 170.568 204.921 168.735 204.942C166.729 204.964 165.193 205.433 164.13 206.349C163.066 207.264 162.351 208.534 161.986 210.157C161.621 211.78 161.448 213.665 161.469 215.811L161.66 236.029C161.682 238.288 161.908 240.225 162.338 241.839C162.768 243.416 163.524 244.631 164.604 245.485C165.685 246.339 167.194 246.755 169.131 246.733C170.999 246.712 172.43 246.263 173.425 245.386C174.42 244.509 175.084 243.296 175.415 241.749C175.78 240.163 175.953 238.335 175.934 236.264L175.908 233.497L178.606 233.467L178.627 235.726C178.652 238.324 178.397 240.642 177.863 242.682C177.329 244.721 176.375 246.332 175.002 247.514C173.629 248.66 171.68 249.246 169.155 249.275Z"
                        class="svg-elem-23"></path>
                </mask>
                <path
                    d="M169.155 249.275C166.387 249.306 164.254 248.708 162.755 247.482C161.29 246.256 160.271 244.611 159.698 242.546C159.125 240.444 158.826 238.132 158.802 235.609L158.618 216.182C158.593 213.546 158.865 211.209 159.434 209.169C160.002 207.092 161.025 205.461 162.501 204.277C163.977 203.056 166.047 202.43 168.711 202.4C171.167 202.373 173.092 202.878 174.486 203.917C175.879 204.956 176.88 206.451 177.486 208.402C178.092 210.315 178.408 212.571 178.433 215.169L178.454 217.484L175.756 217.515L175.734 215.199C175.714 213.015 175.506 211.173 175.111 209.671C174.716 208.132 174.013 206.953 173.002 206.136C171.991 205.319 170.568 204.921 168.735 204.942C166.729 204.964 165.193 205.433 164.13 206.349C163.066 207.264 162.351 208.534 161.986 210.157C161.621 211.78 161.448 213.665 161.469 215.811L161.66 236.029C161.682 238.288 161.908 240.225 162.338 241.839C162.768 243.416 163.524 244.631 164.604 245.485C165.685 246.339 167.194 246.755 169.131 246.733C170.999 246.712 172.43 246.263 173.425 245.386C174.42 244.509 175.084 243.296 175.415 241.749C175.78 240.163 175.953 238.335 175.934 236.264L175.908 233.497L178.606 233.467L178.627 235.726C178.652 238.324 178.397 240.642 177.863 242.682C177.329 244.721 176.375 246.332 175.002 247.514C173.629 248.66 171.68 249.246 169.155 249.275Z"
                    fill="#E4E4E4" stroke="#777777" mask="url(#path-12-inside-11_62_2)" class="svg-elem-24"></path>
            </g>
            <g id="svg-elem-2">
                <mask id="path-13-inside-12_62_2" fill="white">
                    <path d="M25.5244 250.265L25.0911 204.52L27.8931 204.489L28.3264 250.233L25.5244 250.265Z"
                        class="svg-elem-25"></path>
                </mask>
                <path d="M25.5244 250.265L25.0911 204.52L27.8931 204.489L28.3264 250.233L25.5244 250.265Z"
                    fill="#E4E4E4" stroke="#777777" mask="url(#path-13-inside-12_62_2)" class="svg-elem-26"></path>
            </g>
            <g id="svg-elem-7">
                <mask id="path-14-inside-13_62_2" fill="white">
                    <path
                        d="M142.555 249.573C139.822 249.604 137.689 249.044 136.156 247.894C134.657 246.706 133.604 245.098 132.996 243.072C132.389 241.008 132.072 238.677 132.048 236.079L131.859 216.087C131.834 213.489 132.123 211.189 132.727 209.186C133.331 207.184 134.371 205.61 135.848 204.463C137.36 203.317 139.447 202.729 142.111 202.699C144.774 202.669 146.855 203.21 148.354 204.323C149.886 205.436 150.974 206.986 151.615 208.974C152.257 210.963 152.59 213.256 152.615 215.854L152.804 235.903C152.829 238.5 152.557 240.819 151.988 242.859C151.419 244.899 150.379 246.529 148.869 247.751C147.392 248.935 145.288 249.542 142.555 249.573ZM142.531 247.032C144.537 247.009 146.072 246.559 147.137 245.681C148.235 244.802 148.985 243.589 149.386 242.041C149.786 240.455 149.976 238.627 149.956 236.556L149.756 215.434C149.737 213.363 149.512 211.559 149.082 210.02C148.652 208.481 147.898 207.303 146.817 206.487C145.737 205.633 144.176 205.217 142.135 205.24C140.128 205.263 138.576 205.713 137.477 206.591C136.413 207.432 135.68 208.626 135.28 210.174C134.879 211.723 134.689 213.532 134.708 215.603L134.908 236.725C134.928 238.795 135.153 240.619 135.583 242.196C136.013 243.735 136.768 244.931 137.848 245.785C138.964 246.639 140.524 247.054 142.531 247.032Z"
                        class="svg-elem-27"></path>
                </mask>
                <path
                    d="M142.555 249.573C139.822 249.604 137.689 249.044 136.156 247.894C134.657 246.706 133.604 245.098 132.996 243.072C132.389 241.008 132.072 238.677 132.048 236.079L131.859 216.087C131.834 213.489 132.123 211.189 132.727 209.186C133.331 207.184 134.371 205.61 135.848 204.463C137.36 203.317 139.447 202.729 142.111 202.699C144.774 202.669 146.855 203.21 148.354 204.323C149.886 205.436 150.974 206.986 151.615 208.974C152.257 210.963 152.59 213.256 152.615 215.854L152.804 235.903C152.829 238.5 152.557 240.819 151.988 242.859C151.419 244.899 150.379 246.529 148.869 247.751C147.392 248.935 145.288 249.542 142.555 249.573ZM142.531 247.032C144.537 247.009 146.072 246.559 147.137 245.681C148.235 244.802 148.985 243.589 149.386 242.041C149.786 240.455 149.976 238.627 149.956 236.556L149.756 215.434C149.737 213.363 149.512 211.559 149.082 210.02C148.652 208.481 147.898 207.303 146.817 206.487C145.737 205.633 144.176 205.217 142.135 205.24C140.128 205.263 138.576 205.713 137.477 206.591C136.413 207.432 135.68 208.626 135.28 210.174C134.879 211.723 134.689 213.532 134.708 215.603L134.908 236.725C134.928 238.795 135.153 240.619 135.583 242.196C136.013 243.735 136.768 244.931 137.848 245.785C138.964 246.639 140.524 247.054 142.531 247.032Z"
                    fill="#E4E4E4" stroke="#777777" mask="url(#path-14-inside-13_62_2)" class="svg-elem-28"></path>
            </g>
        </g>
        <defs>
            <filter id="filter0_d_62_2" x="63.25" y="0.25" width="177.52" height="179.177" filterUnits="userSpaceOnUse"
                color-interpolation-filters="sRGB">
                <feFlood flood-opacity="0" result="BackgroundImageFix"></feFlood>
                <feColorMatrix in="SourceAlpha" type="matrix" values="0 0 0 0 0 0 0 0 0 0 0 0 0 0 0 0 0 0 127 0"
                    result="hardAlpha"></feColorMatrix>
                <feOffset dy="4"></feOffset>
                <feGaussianBlur stdDeviation="2"></feGaussianBlur>
                <feComposite in2="hardAlpha" operator="out"></feComposite>
                <feColorMatrix type="matrix" values="0 0 0 0 0 0 0 0 0 0 0 0 0 0 0 0 0 0 0.25 0"></feColorMatrix>
                <feBlend mode="normal" in2="BackgroundImageFix" result="effect1_dropShadow_62_2"></feBlend>
                <feBlend mode="normal" in="SourceGraphic" in2="effect1_dropShadow_62_2" result="shape"></feBlend>
            </filter>
        </defs>
    </svg>
