<svg width="305" height="47" viewBox="0 0 305 47" fill="none" xmlns="http://www.w3.org/2000/svg">
<mask id="path-1-inside-1_103_47" fill="white">
<path d="M10.4214 46.9502C8.20725 46.9504 6.37451 46.4611 4.92314 45.4822C3.50636 44.5034 2.4189 43.1292 1.66077 41.3596C0.937224 39.59 0.490982 37.5004 0.32204 35.0907L2.76244 34.2434C3.00127 36.2389 3.36156 38.0085 3.84331 39.5522C4.35966 41.0958 5.13604 42.3006 6.17245 43.1666C7.20893 43.9948 8.64395 44.4089 10.4775 44.4087C12.5532 44.4086 14.1802 43.8437 15.3583 42.7141C16.5711 41.5844 17.1796 39.7018 17.184 37.0662C17.1874 35.0706 16.706 33.2822 15.74 31.7009C14.8086 30.082 13.4796 28.3501 11.7529 26.5053L4.08664 18.2037C2.809 16.773 1.87732 15.3423 1.29159 13.9116C0.705861 12.4809 0.414258 11.0125 0.416781 9.5064C0.421825 6.49427 1.27329 4.17864 2.97119 2.55949C4.70367 0.940344 6.93644 0.13067 9.66949 0.130471C11.0879 0.130367 12.3676 0.337359 13.5085 0.751445C14.6496 1.12788 15.6345 1.76788 16.4632 2.67146C17.3267 3.53739 17.9993 4.70454 18.4812 6.17292C18.9631 7.6413 19.2714 9.44855 19.4062 11.5947L17.0181 12.2161C16.8833 10.07 16.5576 8.28155 16.0411 6.85082C15.5246 5.4201 14.7652 4.36591 13.7631 3.68825C12.761 2.97295 11.4124 2.61535 9.71722 2.61548C7.81446 2.61562 6.22219 3.14285 4.94039 4.19719C3.65859 5.25153 3.01573 6.9459 3.01182 9.28031C3.00987 10.4475 3.21555 11.577 3.62887 12.6689C4.07678 13.7608 4.88779 14.9467 6.06189 16.2268L13.6247 24.359C15.3168 26.1662 16.7666 28.1051 17.974 30.1759C19.216 32.209 19.835 34.4492 19.8309 36.8966C19.827 39.1933 19.426 41.0947 18.6278 42.6009C17.8296 44.0693 16.7207 45.1613 15.3011 45.8768C13.8815 46.5923 12.2549 46.9501 10.4214 46.9502Z"/>
</mask>
<path d="M10.4214 46.9502C8.20725 46.9504 6.37451 46.4611 4.92314 45.4822C3.50636 44.5034 2.4189 43.1292 1.66077 41.3596C0.937224 39.59 0.490982 37.5004 0.32204 35.0907L2.76244 34.2434C3.00127 36.2389 3.36156 38.0085 3.84331 39.5522C4.35966 41.0958 5.13604 42.3006 6.17245 43.1666C7.20893 43.9948 8.64395 44.4089 10.4775 44.4087C12.5532 44.4086 14.1802 43.8437 15.3583 42.7141C16.5711 41.5844 17.1796 39.7018 17.184 37.0662C17.1874 35.0706 16.706 33.2822 15.74 31.7009C14.8086 30.082 13.4796 28.3501 11.7529 26.5053L4.08664 18.2037C2.809 16.773 1.87732 15.3423 1.29159 13.9116C0.705861 12.4809 0.414258 11.0125 0.416781 9.5064C0.421825 6.49427 1.27329 4.17864 2.97119 2.55949C4.70367 0.940344 6.93644 0.13067 9.66949 0.130471C11.0879 0.130367 12.3676 0.337359 13.5085 0.751445C14.6496 1.12788 15.6345 1.76788 16.4632 2.67146C17.3267 3.53739 17.9993 4.70454 18.4812 6.17292C18.9631 7.6413 19.2714 9.44855 19.4062 11.5947L17.0181 12.2161C16.8833 10.07 16.5576 8.28155 16.0411 6.85082C15.5246 5.4201 14.7652 4.36591 13.7631 3.68825C12.761 2.97295 11.4124 2.61535 9.71722 2.61548C7.81446 2.61562 6.22219 3.14285 4.94039 4.19719C3.65859 5.25153 3.01573 6.9459 3.01182 9.28031C3.00987 10.4475 3.21555 11.577 3.62887 12.6689C4.07678 13.7608 4.88779 14.9467 6.06189 16.2268L13.6247 24.359C15.3168 26.1662 16.7666 28.1051 17.974 30.1759C19.216 32.209 19.835 34.4492 19.8309 36.8966C19.827 39.1933 19.426 41.0947 18.6278 42.6009C17.8296 44.0693 16.7207 45.1613 15.3011 45.8768C13.8815 46.5923 12.2549 46.9501 10.4214 46.9502Z" fill="#C3C3C3" stroke="#777777" mask="url(#path-1-inside-1_103_47)"/>
<mask id="path-2-inside-2_103_47" fill="white">
<path d="M294.719 46.9295C292.505 46.9296 290.673 46.4403 289.221 45.4615C287.804 44.4826 286.717 43.1084 285.959 41.3389C285.235 39.5693 284.789 37.4796 284.62 35.0699L287.061 34.2226C287.299 36.2181 287.66 37.9877 288.141 39.5314C288.658 41.0751 289.434 42.2799 290.471 43.1458C291.507 43.9741 292.942 44.3881 294.776 44.388C296.851 44.3878 298.478 43.8229 299.656 42.6933C300.869 41.5637 301.478 39.681 301.482 37.0454C301.485 35.0499 301.004 33.2615 300.038 31.6802C299.107 30.0612 297.778 28.3293 296.051 26.4845L288.385 18.1829C287.107 16.7522 286.175 15.3216 285.59 13.8908C285.004 12.4601 284.712 10.9917 284.715 9.48565C284.72 6.47352 285.571 4.15788 287.269 2.53874C289.002 0.919592 291.235 0.109918 293.968 0.109719C295.386 0.109615 296.666 0.316607 297.807 0.730693C298.948 1.10713 299.933 1.74713 300.761 2.65071C301.625 3.51663 302.297 4.68379 302.779 6.15217C303.261 7.62054 303.57 9.4278 303.704 11.5739L301.316 12.1954C301.181 10.0492 300.856 8.2608 300.339 6.83007C299.823 5.39935 299.063 4.34516 298.061 3.6675C297.059 2.95219 295.71 2.5946 294.015 2.59473C292.113 2.59486 290.52 3.1221 289.238 4.17644C287.957 5.23078 287.314 6.92515 287.31 9.25956C287.308 10.4268 287.514 11.5563 287.927 12.6482C288.375 13.74 289.186 14.926 290.36 16.2061L297.923 24.3383C299.615 26.1454 301.065 28.0844 302.272 30.1551C303.514 32.1882 304.133 34.4284 304.129 36.8758C304.125 39.1726 303.724 41.074 302.926 42.5801C302.128 44.0486 301.019 45.1406 299.599 45.856C298.18 46.5715 296.553 46.9293 294.719 46.9295Z"/>
</mask>
<path d="M294.719 46.9295C292.505 46.9296 290.673 46.4403 289.221 45.4615C287.804 44.4826 286.717 43.1084 285.959 41.3389C285.235 39.5693 284.789 37.4796 284.62 35.0699L287.061 34.2226C287.299 36.2181 287.66 37.9877 288.141 39.5314C288.658 41.0751 289.434 42.2799 290.471 43.1458C291.507 43.9741 292.942 44.3881 294.776 44.388C296.851 44.3878 298.478 43.8229 299.656 42.6933C300.869 41.5637 301.478 39.681 301.482 37.0454C301.485 35.0499 301.004 33.2615 300.038 31.6802C299.107 30.0612 297.778 28.3293 296.051 26.4845L288.385 18.1829C287.107 16.7522 286.175 15.3216 285.59 13.8908C285.004 12.4601 284.712 10.9917 284.715 9.48565C284.72 6.47352 285.571 4.15788 287.269 2.53874C289.002 0.919592 291.235 0.109918 293.968 0.109719C295.386 0.109615 296.666 0.316607 297.807 0.730693C298.948 1.10713 299.933 1.74713 300.761 2.65071C301.625 3.51663 302.297 4.68379 302.779 6.15217C303.261 7.62054 303.57 9.4278 303.704 11.5739L301.316 12.1954C301.181 10.0492 300.856 8.2608 300.339 6.83007C299.823 5.39935 299.063 4.34516 298.061 3.6675C297.059 2.95219 295.71 2.5946 294.015 2.59473C292.113 2.59486 290.52 3.1221 289.238 4.17644C287.957 5.23078 287.314 6.92515 287.31 9.25956C287.308 10.4268 287.514 11.5563 287.927 12.6482C288.375 13.74 289.186 14.926 290.36 16.2061L297.923 24.3383C299.615 26.1454 301.065 28.0844 302.272 30.1551C303.514 32.1882 304.133 34.4284 304.129 36.8758C304.125 39.1726 303.724 41.074 302.926 42.5801C302.128 44.0486 301.019 45.1406 299.599 45.856C298.18 46.5715 296.553 46.9293 294.719 46.9295Z" fill="#C3C3C3" stroke="#777777" mask="url(#path-2-inside-2_103_47)"/>
<mask id="path-3-inside-3_103_47" fill="white">
<path d="M96.8829 46.3791L96.9595 0.632396L107.131 0.631654C109.621 0.631472 111.523 1.13963 112.836 2.15613C114.184 3.13497 115.098 4.49037 115.58 6.22231C116.096 7.91659 116.352 9.81798 116.349 11.9265C116.346 13.6208 116.17 15.2398 115.822 16.7836C115.508 18.3273 114.9 19.6452 113.999 20.7371C113.132 21.7914 111.851 22.4693 110.155 22.7706L116.862 46.3777L114.06 46.3779L107.56 23.3356L99.7237 23.3361L99.6852 46.3789L96.8829 46.3791ZM99.7277 20.9641L106.993 20.9636C108.792 20.9634 110.159 20.6056 111.094 19.8902C112.029 19.1371 112.671 18.0828 113.019 16.7273C113.402 15.3718 113.595 13.7716 113.598 11.9267C113.603 9.0275 113.157 6.82491 112.26 5.31891C111.398 3.81291 109.635 3.06 106.971 3.0602L99.7577 3.06072L99.7277 20.9641Z"/>
</mask>
<path d="M96.8829 46.3791L96.9595 0.632396L107.131 0.631654C109.621 0.631472 111.523 1.13963 112.836 2.15613C114.184 3.13497 115.098 4.49037 115.58 6.22231C116.096 7.91659 116.352 9.81798 116.349 11.9265C116.346 13.6208 116.17 15.2398 115.822 16.7836C115.508 18.3273 114.9 19.6452 113.999 20.7371C113.132 21.7914 111.851 22.4693 110.155 22.7706L116.862 46.3777L114.06 46.3779L107.56 23.3356L99.7237 23.3361L99.6852 46.3789L96.8829 46.3791ZM99.7277 20.9641L106.993 20.9636C108.792 20.9634 110.159 20.6056 111.094 19.8902C112.029 19.1371 112.671 18.0828 113.019 16.7273C113.402 15.3718 113.595 13.7716 113.598 11.9267C113.603 9.0275 113.157 6.82491 112.26 5.31891C111.398 3.81291 109.635 3.06 106.971 3.0602L99.7577 3.06072L99.7277 20.9641Z" fill="#C3C3C3" stroke="#777777" mask="url(#path-3-inside-3_103_47)"/>
<mask id="path-4-inside-4_103_47" fill="white">
<path d="M233.458 46.3692L233.534 0.622424L243.394 0.621705C245.919 0.621521 247.89 1.1485 249.307 2.20264C250.724 3.21913 251.707 4.61217 252.258 6.38176C252.843 8.15135 253.134 10.1657 253.13 12.4248C253.127 14.458 252.829 16.3971 252.238 18.242C251.682 20.087 250.693 21.5931 249.273 22.7604C247.852 23.9277 245.897 24.5115 243.406 24.5117L236.296 24.5122L236.26 46.369L233.458 46.3692ZM236.3 22.1401L242.787 22.1397C244.482 22.1395 245.867 21.8194 246.94 21.1792C248.048 20.5391 248.863 19.5224 249.384 18.1293C249.94 16.6985 250.22 14.7971 250.224 12.425C250.228 9.97764 249.989 8.07625 249.507 6.72083C249.025 5.32775 248.248 4.36769 247.177 3.84065C246.105 3.27595 244.67 2.99367 242.871 2.9938L236.332 2.99428L236.3 22.1401Z"/>
</mask>
<path d="M233.458 46.3692L233.534 0.622424L243.394 0.621705C245.919 0.621521 247.89 1.1485 249.307 2.20264C250.724 3.21913 251.707 4.61217 252.258 6.38176C252.843 8.15135 253.134 10.1657 253.13 12.4248C253.127 14.458 252.829 16.3971 252.238 18.242C251.682 20.087 250.693 21.5931 249.273 22.7604C247.852 23.9277 245.897 24.5115 243.406 24.5117L236.296 24.5122L236.26 46.369L233.458 46.3692ZM236.3 22.1401L242.787 22.1397C244.482 22.1395 245.867 21.8194 246.94 21.1792C248.048 20.5391 248.863 19.5224 249.384 18.1293C249.94 16.6985 250.22 14.7971 250.224 12.425C250.228 9.97764 249.989 8.07625 249.507 6.72083C249.025 5.32775 248.248 4.36769 247.177 3.84065C246.105 3.27595 244.67 2.99367 242.871 2.9938L236.332 2.99428L236.3 22.1401Z" fill="#C3C3C3" stroke="#777777" mask="url(#path-4-inside-4_103_47)"/>
<mask id="path-5-inside-5_103_47" fill="white">
<path d="M59.1023 46.3819L49.0078 0.635901L51.8101 0.635697L60.4605 41.0165L68.6754 0.634467L71.4257 0.634266L61.7488 46.3817L59.1023 46.3819Z"/>
</mask>
<path d="M59.1023 46.3819L49.0078 0.635901L51.8101 0.635697L60.4605 41.0165L68.6754 0.634467L71.4257 0.634266L61.7488 46.3817L59.1023 46.3819Z" fill="#C3C3C3" stroke="#777777" mask="url(#path-5-inside-5_103_47)"/>
<mask id="path-6-inside-6_103_47" fill="white">
<path d="M216.195 46.9918C213.462 46.992 211.336 46.4085 209.815 45.2414C208.33 44.0367 207.295 42.4177 206.71 40.3846C206.125 38.3138 205.835 35.9794 205.839 33.3815L205.873 13.3884C205.877 10.7905 206.192 8.49369 206.819 6.49811C207.445 4.50253 208.502 2.93991 209.992 1.81025C211.516 0.680589 213.61 0.115661 216.274 0.115466C218.938 0.115272 221.012 0.679896 222.498 1.80934C224.018 2.93877 225.088 4.50124 225.708 6.49673C226.327 8.49222 226.635 10.789 226.63 13.3869L226.597 33.4364C226.592 36.0344 226.294 38.35 225.703 40.3832C225.111 42.4164 224.053 44.0355 222.529 45.2405C221.04 46.4078 218.928 46.9916 216.195 46.9918ZM216.2 44.4503C218.206 44.4501 219.746 44.017 220.82 43.151C221.929 42.2849 222.692 41.08 223.11 39.5362C223.527 37.9548 223.738 36.1287 223.742 34.0579L223.777 12.9353C223.78 10.8645 223.576 9.0572 223.163 7.51351C222.751 5.96983 222.009 4.78385 220.938 3.95559C219.867 3.08968 218.311 2.6568 216.27 2.65695C214.263 2.6571 212.706 3.09021 211.597 3.95628C210.523 4.78469 209.777 5.97077 209.36 7.51452C208.942 9.05827 208.731 10.8656 208.728 12.9364L208.692 34.059C208.689 36.1298 208.894 37.9559 209.306 39.5372C209.719 41.0809 210.46 42.2857 211.531 43.1516C212.637 44.0175 214.193 44.4504 216.2 44.4503Z"/>
</mask>
<path d="M216.195 46.9918C213.462 46.992 211.336 46.4085 209.815 45.2414C208.33 44.0367 207.295 42.4177 206.71 40.3846C206.125 38.3138 205.835 35.9794 205.839 33.3815L205.873 13.3884C205.877 10.7905 206.192 8.49369 206.819 6.49811C207.445 4.50253 208.502 2.93991 209.992 1.81025C211.516 0.680589 213.61 0.115661 216.274 0.115466C218.938 0.115272 221.012 0.679896 222.498 1.80934C224.018 2.93877 225.088 4.50124 225.708 6.49673C226.327 8.49222 226.635 10.789 226.63 13.3869L226.597 33.4364C226.592 36.0344 226.294 38.35 225.703 40.3832C225.111 42.4164 224.053 44.0355 222.529 45.2405C221.04 46.4078 218.928 46.9916 216.195 46.9918ZM216.2 44.4503C218.206 44.4501 219.746 44.017 220.82 43.151C221.929 42.2849 222.692 41.08 223.11 39.5362C223.527 37.9548 223.738 36.1287 223.742 34.0579L223.777 12.9353C223.78 10.8645 223.576 9.0572 223.163 7.51351C222.751 5.96983 222.009 4.78385 220.938 3.95559C219.867 3.08968 218.311 2.6568 216.27 2.65695C214.263 2.6571 212.706 3.09021 211.597 3.95628C210.523 4.78469 209.777 5.97077 209.36 7.51452C208.942 9.05827 208.731 10.8656 208.728 12.9364L208.692 34.059C208.689 36.1298 208.894 37.9559 209.306 39.5372C209.719 41.0809 210.46 42.2857 211.531 43.1516C212.637 44.0175 214.193 44.4504 216.2 44.4503Z" fill="#C3C3C3" stroke="#777777" mask="url(#path-6-inside-6_103_47)"/>
<mask id="path-7-inside-7_103_47" fill="white">
<path d="M76.4588 46.3806L76.5354 0.633897L91.0655 0.632837L91.0614 3.11785L79.3854 3.1187L79.3546 21.4739L88.9549 21.4732L88.9509 23.8452L79.3507 23.8459L79.317 43.9519L91.1487 43.951L91.1446 46.3796L76.4588 46.3806Z"/>
</mask>
<path d="M76.4588 46.3806L76.5354 0.633897L91.0655 0.632837L91.0614 3.11785L79.3854 3.1187L79.3546 21.4739L88.9549 21.4732L88.9509 23.8452L79.3507 23.8459L79.317 43.9519L91.1487 43.951L91.1446 46.3796L76.4588 46.3806Z" fill="#C3C3C3" stroke="#777777" mask="url(#path-7-inside-7_103_47)"/>
<mask id="path-8-inside-8_103_47" fill="white">
<path d="M268.607 46.9878C265.874 46.988 263.747 46.4987 262.226 45.5199C260.706 44.5034 259.636 43.148 259.016 41.4537C258.43 39.7218 258.14 37.7827 258.143 35.6366L258.202 0.620575L261.004 0.62037L260.945 35.6929C260.943 37.3496 261.148 38.8556 261.561 40.211C262.008 41.5288 262.785 42.5642 263.891 43.3171C265.031 44.0701 266.604 44.4465 268.611 44.4463C270.514 44.4462 272.019 44.0696 273.128 43.3164C274.271 42.5257 275.085 41.4714 275.572 40.1535C276.058 38.8357 276.303 37.3484 276.306 35.6918L276.364 0.61925L279.115 0.619049L279.056 35.6351C279.053 37.7812 278.721 39.7203 278.06 41.4523C277.4 43.1467 276.308 44.5022 274.784 45.5189C273.295 46.498 271.236 46.9876 268.607 46.9878Z"/>
</mask>
<path d="M268.607 46.9878C265.874 46.988 263.747 46.4987 262.226 45.5199C260.706 44.5034 259.636 43.148 259.016 41.4537C258.43 39.7218 258.14 37.7827 258.143 35.6366L258.202 0.620575L261.004 0.62037L260.945 35.6929C260.943 37.3496 261.148 38.8556 261.561 40.211C262.008 41.5288 262.785 42.5642 263.891 43.3171C265.031 44.0701 266.604 44.4465 268.611 44.4463C270.514 44.4462 272.019 44.0696 273.128 43.3164C274.271 42.5257 275.085 41.4714 275.572 40.1535C276.058 38.8357 276.303 37.3484 276.306 35.6918L276.364 0.61925L279.115 0.619049L279.056 35.6351C279.053 37.7812 278.721 39.7203 278.06 41.4523C277.4 43.1467 276.308 44.5022 274.784 45.5189C273.295 46.498 271.236 46.9876 268.607 46.9878Z" fill="#C3C3C3" stroke="#777777" mask="url(#path-8-inside-8_103_47)"/>
<mask id="path-9-inside-9_103_47" fill="white">
<path d="M190.766 46.3723L190.838 3.11052L182.431 3.11113L182.436 0.626122L201.844 0.624706L201.839 3.10972L193.64 3.11031L193.568 46.372L190.766 46.3723Z"/>
</mask>
<path d="M190.766 46.3723L190.838 3.11052L182.431 3.11113L182.436 0.626122L201.844 0.624706L201.839 3.10972L193.64 3.11031L193.568 46.372L190.766 46.3723Z" fill="#C3C3C3" stroke="#777777" mask="url(#path-9-inside-9_103_47)"/>
<mask id="path-10-inside-10_103_47" fill="white">
<path d="M36.1718 46.3835L36.2484 0.636754L39.0507 0.636549L38.9781 43.9548L51.692 43.9538L51.6899 45.1681L51.6879 46.3824L36.1718 46.3835Z"/>
</mask>
<path d="M36.1718 46.3835L36.2484 0.636754L39.0507 0.636549L38.9781 43.9548L51.692 43.9538L51.6899 45.1681L51.6879 46.3824L36.1718 46.3835Z" fill="#C3C3C3" stroke="#777777" mask="url(#path-10-inside-10_103_47)"/>
<mask id="path-11-inside-11_103_47" fill="white">
<path d="M169.163 46.9951C166.396 46.9953 164.269 46.3742 162.784 45.1318C161.333 43.8894 160.332 42.2328 159.782 40.162C159.232 38.0536 158.959 35.738 158.964 33.2153L158.996 13.7871C159.001 11.1515 159.299 8.81706 159.89 6.78383C160.482 4.71295 161.522 3.09385 163.012 1.92654C164.501 0.721577 166.578 0.118999 169.242 0.118805C171.698 0.118626 173.617 0.64561 175 1.69976C176.382 2.7539 177.365 4.2599 177.95 6.21774C178.535 8.13793 178.825 10.397 178.821 12.995L178.817 15.3105L176.118 15.3107L176.122 12.9952C176.126 10.8114 175.939 8.96645 175.561 7.46042C175.183 5.91673 174.493 4.73075 173.491 3.90249C172.489 3.07422 171.071 2.66016 169.238 2.66029C167.231 2.66044 165.691 3.11237 164.617 4.01609C163.543 4.91981 162.814 6.18119 162.431 7.80024C162.048 9.41929 161.854 11.3019 161.851 13.448L161.817 33.667C161.813 35.9261 162.018 37.8651 162.43 39.4841C162.842 41.0654 163.584 42.2891 164.655 43.155C165.726 44.0209 167.23 44.4538 169.168 44.4536C171.036 44.4535 172.472 44.0204 173.477 43.1543C174.482 42.2883 175.158 41.0834 175.507 39.5396C175.89 37.9582 176.083 36.1321 176.087 34.0613L176.092 31.2939L178.79 31.2937L178.786 33.5528C178.782 36.1507 178.501 38.4663 177.944 40.4996C177.387 42.5328 176.416 44.133 175.03 45.3004C173.645 46.43 171.689 46.9949 169.163 46.9951Z"/>
</mask>
<path d="M169.163 46.9951C166.396 46.9953 164.269 46.3742 162.784 45.1318C161.333 43.8894 160.332 42.2328 159.782 40.162C159.232 38.0536 158.959 35.738 158.964 33.2153L158.996 13.7871C159.001 11.1515 159.299 8.81706 159.89 6.78383C160.482 4.71295 161.522 3.09385 163.012 1.92654C164.501 0.721577 166.578 0.118999 169.242 0.118805C171.698 0.118626 173.617 0.64561 175 1.69976C176.382 2.7539 177.365 4.2599 177.95 6.21774C178.535 8.13793 178.825 10.397 178.821 12.995L178.817 15.3105L176.118 15.3107L176.122 12.9952C176.126 10.8114 175.939 8.96645 175.561 7.46042C175.183 5.91673 174.493 4.73075 173.491 3.90249C172.489 3.07422 171.071 2.66016 169.238 2.66029C167.231 2.66044 165.691 3.11237 164.617 4.01609C163.543 4.91981 162.814 6.18119 162.431 7.80024C162.048 9.41929 161.854 11.3019 161.851 13.448L161.817 33.667C161.813 35.9261 162.018 37.8651 162.43 39.4841C162.842 41.0654 163.584 42.2891 164.655 43.155C165.726 44.0209 167.23 44.4538 169.168 44.4536C171.036 44.4535 172.472 44.0204 173.477 43.1543C174.482 42.2883 175.158 41.0834 175.507 39.5396C175.89 37.9582 176.083 36.1321 176.087 34.0613L176.092 31.2939L178.79 31.2937L178.786 33.5528C178.782 36.1507 178.501 38.4663 177.944 40.4996C177.387 42.5328 176.416 44.133 175.03 45.3004C173.645 46.43 171.689 46.9949 169.163 46.9951Z" fill="#C3C3C3" stroke="#777777" mask="url(#path-11-inside-11_103_47)"/>
<mask id="path-12-inside-12_103_47" fill="white">
<path d="M25.5308 46.3844L25.6074 0.637639L28.4097 0.637434L28.3331 46.3842L25.5308 46.3844Z"/>
</mask>
<path d="M25.5308 46.3844L25.6074 0.637639L28.4097 0.637434L28.3331 46.3842L25.5308 46.3844Z" fill="#C3C3C3" stroke="#777777" mask="url(#path-12-inside-12_103_47)"/>
<mask id="path-13-inside-13_103_47" fill="white">
<path d="M142.562 46.997C139.829 46.9972 137.702 46.4138 136.182 45.2467C134.696 44.0419 133.661 42.423 133.076 40.3898C132.492 38.319 132.202 35.9847 132.206 33.3867L132.239 13.3937C132.244 10.7957 132.559 8.49894 133.185 6.50336C133.811 4.50778 134.869 2.94516 136.358 1.8155C137.882 0.685838 139.976 0.12091 142.64 0.120715C145.304 0.120521 147.379 0.685145 148.865 1.81459C150.385 2.94402 151.455 4.50649 152.074 6.50198C152.694 8.49747 153.001 10.7942 152.997 13.3922L152.963 33.4417C152.959 36.0396 152.661 38.3552 152.069 40.3885C151.478 42.4217 150.42 44.0408 148.896 45.2457C147.406 46.4131 145.295 46.9968 142.562 46.997ZM142.566 44.4555C144.573 44.4554 146.113 44.0223 147.187 43.1562C148.295 42.2901 149.058 41.0852 149.476 39.5415C149.894 37.9601 150.105 36.134 150.108 34.0631L150.143 12.9406C150.147 10.8697 149.942 9.06245 149.53 7.51876C149.117 5.97507 148.375 4.7891 147.304 3.96084C146.233 3.09493 144.677 2.66205 142.636 2.6622C140.63 2.66235 139.072 3.09546 137.963 3.96152C136.89 4.78994 136.144 5.97602 135.726 7.51977C135.308 9.06352 135.098 10.8708 135.094 12.9417L135.059 34.0642C135.055 36.1351 135.26 37.9612 135.672 39.5425C136.085 41.0862 136.827 42.291 137.898 43.1569C139.003 44.0228 140.56 44.4557 142.566 44.4555Z"/>
</mask>
<path d="M142.562 46.997C139.829 46.9972 137.702 46.4138 136.182 45.2467C134.696 44.0419 133.661 42.423 133.076 40.3898C132.492 38.319 132.202 35.9847 132.206 33.3867L132.239 13.3937C132.244 10.7957 132.559 8.49894 133.185 6.50336C133.811 4.50778 134.869 2.94516 136.358 1.8155C137.882 0.685838 139.976 0.12091 142.64 0.120715C145.304 0.120521 147.379 0.685145 148.865 1.81459C150.385 2.94402 151.455 4.50649 152.074 6.50198C152.694 8.49747 153.001 10.7942 152.997 13.3922L152.963 33.4417C152.959 36.0396 152.661 38.3552 152.069 40.3885C151.478 42.4217 150.42 44.0408 148.896 45.2457C147.406 46.4131 145.295 46.9968 142.562 46.997ZM142.566 44.4555C144.573 44.4554 146.113 44.0223 147.187 43.1562C148.295 42.2901 149.058 41.0852 149.476 39.5415C149.894 37.9601 150.105 36.134 150.108 34.0631L150.143 12.9406C150.147 10.8697 149.942 9.06245 149.53 7.51876C149.117 5.97507 148.375 4.7891 147.304 3.96084C146.233 3.09493 144.677 2.66205 142.636 2.6622C140.63 2.66235 139.072 3.09546 137.963 3.96152C136.89 4.78994 136.144 5.97602 135.726 7.51977C135.308 9.06352 135.098 10.8708 135.094 12.9417L135.059 34.0642C135.055 36.1351 135.26 37.9612 135.672 39.5425C136.085 41.0862 136.827 42.291 137.898 43.1569C139.003 44.0228 140.56 44.4557 142.566 44.4555Z" fill="#C3C3C3" stroke="#777777" mask="url(#path-13-inside-13_103_47)"/>
</svg>
