<svg id="octopus-logo" viewBox="0 0 170 171" fill="none" xmlns="http://www.w3.org/2000/svg">
        <path 
            d="M158.5 48C165.196 53.3333 175.811 72.4 163.011 106C147.011 148 150.511 159 165.011 164.5C176.611 168.9 150.511 165 150.011 153C149.011 148.333 148.911 132.1 156.511 104.5C164.111 76.9 156.333 61.9928 151 57.5C150.882 67.1388 149.756 91.9063 129.532 110.5C101.847 135.952 85.0316 153 97.5316 166.5C110.032 180 75.5316 158.5 98.0316 134.5C120.532 110.5 144 77 138.532 60.5C140.865 70.5 135.332 92.4 94.5316 100C43.5316 109.5 37.5316 119 40.0316 131C42.5316 143 15.0316 107 94.5316 94C115.732 90.4 126.532 68.5 126.532 58.5C126.365 65.5 120.131 79.6992 96.5316 79.5C81.0644 79.3694 43.5316 65 43.5316 65C34.6982 61.8333 15.1315 59.2 7.53155 74C1.03155 92 0.531551 58.5 27.5316 59.5C54.5316 60.5 54.0316 69 86.5316 69.5C107.332 69.1 117.198 59.3333 119.532 54.5C111.865 65.1667 87.8316 75 53.0316 29C42.6982 16 19.2316 -6.2 8.03155 9C-5.96845 28 2.53155 1 19.5316 1C33.1316 1 55.5316 22.6667 65.0316 33.5C71.8649 41.3333 91.1 55 113.5 47C104.5 32.5 116 9 136 9C156 9 167.5 33.5 158.5 48Z"
            fill="#E4E4E4" stroke="#777777" stroke-width="0.5" />
</svg>