<svg id="spring-logo" width="255" height="83" viewBox="0 0 255 83" fill="none" xmlns="http://www.w3.org/2000/svg">
<g filter="url(#filter0_f_45_106)">
<path d="M90.7312 53.7995C89.9797 53.3938 89.4016 52.525 89.4016 51.3671C89.4016 49.8062 90.6156 48.5406 92.2401 48.5406C92.8156 48.5406 93.3385 48.7099 93.7407 48.9416C96.6953 50.9104 99.7625 51.8947 102.536 51.8947C105.544 51.8947 107.28 50.6203 107.28 48.5927V48.478C107.28 46.1056 104.042 45.2968 100.452 44.1984C95.9412 42.9244 90.9073 41.075 90.9073 35.2302V35.113C90.9073 29.326 95.7093 25.7979 101.785 25.7979C105.026 25.7979 108.438 26.725 111.389 28.2848C112.375 28.8072 113.066 29.7334 113.066 30.9452C113.066 32.5671 111.795 33.7848 110.175 33.7848C109.594 33.7848 109.247 33.6687 108.789 33.4359C106.297 32.1614 103.752 31.35 101.612 31.35C98.8907 31.35 97.3281 32.626 97.3281 34.363V34.4755C97.3281 36.7328 100.626 37.6562 104.215 38.8156C108.67 40.2052 113.704 42.2291 113.704 47.7255V47.8427C113.704 54.2646 108.725 57.4432 102.362 57.4432C98.488 57.4432 94.264 56.2323 90.7312 53.7995" fill="#5FB832"/>
<path d="M140.826 41.651V41.5338C140.826 35.6349 136.833 31.7578 132.091 31.7578C127.346 31.7578 123.181 35.6922 123.181 41.5338V41.651C123.181 47.4948 127.346 51.4329 132.091 51.4329C136.893 51.4329 140.826 47.6693 140.826 41.651V41.651ZM116.352 29.325C116.352 27.3614 117.854 25.7969 119.825 25.7969C121.791 25.7969 123.354 27.3614 123.354 29.325V31.411C125.61 28.2302 128.792 25.6834 133.769 25.6834C140.942 25.6834 147.944 31.351 147.944 41.5338V41.651C147.944 51.7777 141 57.5042 133.769 57.5042C128.678 57.5042 125.495 54.9557 123.354 52.1266V62.9401C123.354 64.9146 121.791 66.4193 119.825 66.4193C117.917 66.4193 116.352 64.9146 116.352 62.9401V29.325" fill="#5FB832"/>
<path d="M150.596 29.3291C150.596 27.3656 152.096 25.801 154.064 25.801C156.036 25.801 157.596 27.3656 157.596 29.3291V31.0124C157.945 28.3906 162.223 25.801 165.291 25.801C167.488 25.801 168.763 27.2463 168.763 29.2703C168.763 31.1203 167.547 32.3375 165.984 32.626C161.008 33.4943 157.596 37.8484 157.596 43.8723V53.9662C157.596 55.8776 156.036 57.439 154.064 57.439C152.156 57.439 150.596 55.9338 150.596 53.9662V29.3291" fill="#5FB832"/>
<path d="M171.411 29.3432C171.411 27.3766 172.92 25.8119 174.884 25.8119C176.851 25.8119 178.413 27.3766 178.413 29.3432V53.9719C178.413 55.9364 176.851 57.439 174.884 57.439C172.973 57.439 171.411 55.9364 171.411 53.9719V29.3432Z" fill="#5FB832"/>
<path d="M181.943 29.3567C181.943 27.3901 183.448 25.8291 185.412 25.8291C187.381 25.8291 188.943 27.3901 188.943 29.3567V30.7933C190.913 27.9573 193.744 25.8114 198.488 25.8114C205.373 25.8114 209.368 30.4422 209.368 37.5001V53.9677C209.368 55.9338 207.861 57.4401 205.895 57.4401C203.928 57.4401 202.367 55.9338 202.367 53.9677V39.6417C202.367 34.8995 199.995 32.1781 195.828 32.1781C191.779 32.1781 188.943 35.013 188.943 39.761V53.9677C188.943 55.9338 187.381 57.4401 185.412 57.4401C183.504 57.4401 181.943 55.9338 181.943 53.9677V29.3567" fill="#5FB832"/>
<path d="M227.873 51.3688C223.067 51.3688 219.136 47.6068 219.136 41.5886V41.475C219.136 35.5745 223.125 31.6974 227.873 31.6974C232.619 31.6974 236.784 35.6329 236.784 41.475V41.5886C236.784 47.4338 232.619 51.3688 227.873 51.3688ZM240.133 25.7365C238.169 25.7365 236.607 27.3021 236.607 29.2662V31.3485C234.348 28.1677 231.169 25.6224 226.196 25.6224C219.017 25.6224 212.019 31.2901 212.019 41.475V41.5886C212.019 51.7152 218.96 57.4401 226.196 57.4401C231.257 57.4401 234.432 54.922 236.575 52.1068C236.224 57.6084 232.856 60.513 226.948 60.513C223.421 60.513 220.353 59.6422 217.572 58.0772C217.225 57.9078 216.827 57.7933 216.304 57.7933C214.684 57.7933 213.349 59.1256 213.349 60.6828C213.349 62.0146 214.103 62.9979 215.321 63.461C219.019 65.2552 222.835 66.1813 227.119 66.1813C232.619 66.1813 236.901 64.8516 239.679 62.0729C242.219 59.525 243.608 55.711 243.608 50.5589V29.2662C243.608 27.3021 242.104 25.7365 240.133 25.7365" fill="#5FB832"/>
<path d="M178.441 17.3813C178.441 19.3281 176.86 20.911 174.911 20.911C172.96 20.911 171.383 19.3281 171.383 17.3813C171.383 15.4291 172.96 13.8531 174.911 13.8531C176.86 13.8531 178.441 15.4291 178.441 17.3813Z" fill="#5FB832"/>
<path d="M67.2427 55.3479C59.4812 65.689 42.9016 62.1984 32.2719 62.7005C32.2719 62.7005 30.3901 62.8052 28.4948 63.1172C28.4948 63.1172 29.2115 62.8114 30.1255 62.4963C37.5912 59.9146 41.1193 59.3958 45.6557 57.0656C54.1792 52.6995 62.662 43.189 64.388 33.3094C61.1437 42.8114 51.2765 50.9895 42.2921 54.3104C36.1427 56.5796 25.0219 58.788 25.0203 58.789C25.0255 58.7968 24.5771 58.5562 24.5708 58.551C17.0078 54.8714 16.7896 38.4911 30.5255 33.211C36.5479 30.8943 42.3084 32.1667 48.8188 30.6171C55.7625 28.9662 63.8047 23.7614 67.0735 16.9567C70.738 27.826 75.1401 44.8312 67.2427 55.3479V55.3479ZM67.3776 13.5886C66.4536 15.7838 65.326 17.7619 64.026 19.5312C58.3041 13.6588 50.3177 10 41.4901 10C24.1255 10 10 24.1271 10 41.4886C10 50.59 13.8849 58.7984 20.0786 64.5521L20.7682 65.163C19.6167 64.2239 19.4396 62.5328 20.3729 61.3802C21.312 60.2271 23.0047 60.0484 24.1568 60.9823C25.312 61.9182 25.488 63.6135 24.5527 64.7682C23.6208 65.9234 21.925 66.0979 20.7714 65.1656L21.2406 65.5812C26.7193 70.1943 33.7817 72.9807 41.4901 72.9807C58.088 72.9807 71.7172 60.064 72.8839 43.761C73.7479 35.7786 71.3901 25.6427 67.3776 13.5886Z" fill="#5FB832"/>
<path d="M251.807 27.9416H250.707V29.3979H251.807C252.163 29.3979 252.552 29.1104 252.552 28.687C252.552 28.2291 252.163 27.9416 251.807 27.9416V27.9416ZM252.485 31.5468L251.417 29.9219H250.707V31.5468H250.132V27.4334H251.807C252.501 27.4334 253.145 27.9255 253.145 28.687C253.145 29.6004 252.331 29.9056 252.095 29.9056L253.196 31.5468H252.485ZM251.503 26.4348C249.809 26.4348 248.455 27.789 248.455 29.4828C248.455 31.1578 249.809 32.5296 251.503 32.5296C253.177 32.5296 254.549 31.1578 254.549 29.4828C254.549 27.789 253.177 26.4348 251.503 26.4348ZM251.503 33.0719C249.521 33.0719 247.913 31.463 247.913 29.4828C247.913 27.4838 249.521 25.8927 251.503 25.8927C253.5 25.8927 255.092 27.4838 255.092 29.4828C255.092 31.463 253.5 33.0719 251.503 33.0719Z" fill="#5FB832"/>
</g>
<defs>
<filter id="filter0_f_45_106" x="0" y="0" width="265.092" height="82.9807" filterUnits="userSpaceOnUse" color-interpolation-filters="sRGB">
<feFlood flood-opacity="0" result="BackgroundImageFix"/>
<feBlend mode="normal" in="SourceGraphic" in2="BackgroundImageFix" result="shape"/>
<feGaussianBlur stdDeviation="5" result="effect1_foregroundBlur_45_106"/>
</filter>
</defs>
</svg>
